Coordinates
version=1
nRows=9
nColumns=36
inDegrees=yes

Units are S.I. units (second, meters, Newtons, ...)
Angles are in degrees.

endheader
time	pelvis_tilt	pelvis_list	pelvis_rotation	pelvis_tx	pelvis_ty	pelvis_tz	hip_flexion_r	hip_adduction_r	hip_rotation_r	knee_angle_r	ankle_angle_r	subtalar_angle_r	hip_flexion_l	hip_adduction_l	hip_rotation_l	knee_angle_l	ankle_angle_l	subtalar_angle_l	lumbar_extension	lumbar_bending	lumbar_rotation	arm_flex_r	arm_add_r	arm_rot_r	elbow_flex_r	pro_sup_r	wrist_flex_r	wrist_dev_r	arm_flex_l	arm_add_l	arm_rot_l	elbow_flex_l	pro_sup_l	wrist_flex_l	wrist_dev_l
      3.78000000	     -0.10198941	      1.74114373	      7.78183904	     -0.08598512	      0.89688027	     -0.23016720	     28.06372452	     -1.88728051	    -11.66111214	    -14.93432653	      1.98765293	     -1.22331757	    -16.08185196	      1.76753804	      7.27383322	    -19.51701912	     12.80614858	     11.71626600	     -6.28486385	     -0.15570263	    -10.47444954	     -8.87386527	    -14.62224252	     12.76045455	     11.94542187	     86.51662706	      0.00000000	      0.00000000	      1.43881656	    -16.88639773	     18.80456911	     27.66645255	     86.51662706	      0.00000000	      0.00000000
      3.79000000	     -0.04697114	      1.47344483	      7.86802545	     -0.07049201	      0.89537604	     -0.22956008	     27.84577741	     -1.42143041	    -11.24862394	    -16.16709720	      0.66226272	     -2.98753749	    -16.26229218	      1.20210846	      6.73072211	    -20.86943088	     11.85320443	     12.74449771	     -5.97855348	      0.20622438	    -10.50604605	     -9.04265063	    -14.66345411	     13.17030506	     11.72224989	     86.51662706	      0.00000000	      0.00000000	      1.00382533	    -16.69003662	     18.88084152	     27.17047048	     86.51662706	      0.00000000	      0.00000000
      3.80000000	     -0.00450216	      1.10048164	      7.89778862	     -0.05487360	      0.89392019	     -0.22879617	     27.69311721	     -0.82618772	    -10.79950172	    -17.36135627	     -0.95259602	     -4.70435008	    -16.29092014	      0.53355515	      6.09216462	    -22.38184219	     10.57933214	     13.75593268	     -5.62296213	      0.68695688	    -10.44995189	     -9.22805832	    -14.72991340	     13.53337306	     11.54803500	     86.51662706	      0.00000000	      0.00000000	      0.54779659	    -16.45878450	     18.92527056	     26.65199829	     86.51662706	      0.00000000	      0.00000000
      3.81000000	      0.03533050	      0.60602273	      7.86948418	     -0.03928532	      0.89275903	     -0.22782251	     27.62517810	     -0.10871442	    -10.31212690	    -18.55784602	     -2.70508287	     -6.27542989	    -16.14448556	     -0.24483152	      5.37733317	    -24.07415626	      8.90638407	     14.69713424	     -5.24427318	      1.29715308	    -10.30092420	     -9.40603655	    -14.82105319	     13.84562974	     11.41675785	     86.51662706	      0.00000000	      0.00000000	      0.09181046	    -16.19142721	     18.94247257	     26.10619704	     86.51662706	      0.00000000	      0.00000000
      3.82000000	      0.07396324	     -0.00721390	      7.78538542	     -0.02387235	      0.89207631	     -0.22669900	     27.62973087	      0.72366830	     -9.78487245	    -19.82075937	     -4.40320275	     -7.63289461	    -15.80375279	     -1.12239268	      4.61939332	    -25.96093604	      6.77519903	     15.50739518	     -4.86881347	      2.03119927	    -10.06459538	     -9.55193108	    -14.93681563	     14.10457267	     11.32462233	     86.51662706	      0.00000000	      0.00000000	     -0.34965148	    -15.89055781	     18.93951570	     25.53104685	     86.51662706	      0.00000000	      0.00000000
      3.83000000	      0.11277603	     -0.71465926	      7.64904567	     -0.00866572	      0.89186266	     -0.22554399	     27.67656811	      1.66028810	     -9.22907481	    -21.18645143	     -5.85098667	     -8.74078586	    -15.25899233	     -2.07168697	      3.86383714	    -28.05090944	      4.16565378	     16.12222812	     -4.51923070	      2.86561357	     -9.75574351	     -9.64460892	    -15.07683137	     14.30875415	     11.27126996	     86.51662706	      0.00000000	      0.00000000	     -0.76921426	    -15.56278703	     18.92631736	     24.92762375	     86.51662706	      0.00000000	      0.00000000
      3.84000000	      0.15626557	     -1.47800743	      7.46392822	      0.00636285	      0.89193678	     -0.22441500	     27.72843450	      2.67997522	     -8.67415692	    -22.63131514	     -6.88619707	     -9.59012109	    -14.51262182	     -3.05512617	      3.16467108	    -30.34708448	      1.11431704	     16.47843231	     -4.21298258	      3.76345926	     -9.39510766	     -9.66933549	    -15.23933798	     14.45744132	     11.26037115	     86.51662706	      0.00000000	      0.00000000	     -1.16468372	    -15.21792921	     18.91569812	     24.29984583	     86.51662706	      0.00000000	      0.00000000
      3.85000000	      0.20565432	     -2.25746063	      7.23659626	      0.02116446	      0.89210394	     -0.22328630	     27.74031422	      3.74983020	     -8.16274707	    -24.07631962	     -7.40979272	    -10.19012911	    -13.57657064	     -4.03277673	      2.57856891	    -32.84615102	     -2.27513577	     16.52090317	     -3.96284118	      4.68336403	     -9.00599257	     -9.61911976	    -15.42051432	     14.55050895	     11.29940403	     86.51662706	      0.00000000	      0.00000000	     -1.53570939	    -14.86736018	     18.92297668	     23.65382550	     86.51662706	      0.00000000	      0.00000000
      3.86000000	      0.25692082	     -3.02155574	      6.98281633	      0.03562735	      0.89229498	     -0.22212468	     27.65883781	      4.83028134	     -7.73886275	    -25.41629729	     -7.39992120	    -10.55930940	    -12.46578872	     -4.96756586	      2.15763865	    -35.53668738	     -5.83275537	     16.21097123	     -3.77826353	      5.58912681	     -8.61160012	     -9.49473668	    -15.61467708	     14.58857776	     11.39861664	     86.51662706	      0.00000000	      0.00000000	     -1.88050807	    -14.52210676	     18.96503694	     22.99703265	     86.51662706	      0.00000000	      0.00000000
